<?xml version="1.0" encoding="utf-8"?>
<!-- Generator: Adobe Illustrator 21.1.0, SVG Export Plug-In . SVG Version: 6.00 Build 0)  -->
<svg version="1.1" id="Layer_1" xmlns="http://www.w3.org/2000/svg" xmlns:xlink="http://www.w3.org/1999/xlink" x="0px" y="0px"
	 viewBox="0 0 24 24" style="enable-background:new 0 0 24 24;" xml:space="preserve">
<style type="text/css">
	.st0{fill:#FFFFFF;}
</style>
<path class="st0" d="M12,2.2c5.4,0,9.8,4.4,9.8,9.8s-4.4,9.8-9.8,9.8S2.2,17.4,2.2,12S6.6,2.2,12,2.2 M12,0.2
	C5.5,0.2,0.2,5.5,0.2,12S5.5,23.8,12,23.8S23.8,18.5,23.8,12S18.5,0.2,12,0.2L12,0.2z"/>
<g>
	<polygon class="st0" points="18,11 13,11 13,6 11,6 11,11 6,11 6,13 11,13 11,18 13,18 13,13 18,13 	"/>
</g>
</svg>
