<svg id="Layer_1" data-name="Layer 1" xmlns="http://www.w3.org/2000/svg" viewBox="0 0 220 38.73"><defs><style>.cls-1{fill:#fff;}.cls-2{fill:#73dcff;}</style></defs><title>Untitled-1</title><path class="cls-1" d="M5.39,30.16l5.08-19.47-3-.41L7.7,8.57H18.46L20,21.69l0.33,2.66,0.86-2.66,5.2-13.12h9.5l-0.2,1.71-2.74.41L32.33,30.16l2.82,0.47L35,32.28H23.9L24,30.6,27,30.16l0.89-13.27,0.31-6.2L26,16.14,19.12,32.33l-2.63.23-2.12-16-0.84-5.84-1.36,6L8.91,30.16l3.51,0.45-0.16,1.67H2.7l0.19-1.65Z" transform="translate(0 -0.43)"/><path class="cls-1" d="M50.8,16.06a7.67,7.67,0,0,1,1.81,5.52A11.82,11.82,0,0,1,51.38,27a9.58,9.58,0,0,1-3.52,3.87,9.73,9.73,0,0,1-5.27,1.43,6.9,6.9,0,0,1-5.31-1.93,7.9,7.9,0,0,1-1.79-5.57,11.76,11.76,0,0,1,1.23-5.39,9.41,9.41,0,0,1,3.51-3.83,9.81,9.81,0,0,1,5.27-1.4A7,7,0,0,1,50.8,16.06Zm-4.13,2.24A3.17,3.17,0,0,0,46,16.82a1.44,1.44,0,0,0-1.08-.44,2.56,2.56,0,0,0-2.16,1.23,8.54,8.54,0,0,0-1.28,3.13,18.56,18.56,0,0,0-.41,3.94l0,0.62a17,17,0,0,0,.3,2.9,3.31,3.31,0,0,0,.7,1.58,1.61,1.61,0,0,0,1.23.5A2.43,2.43,0,0,0,45.41,29a8.94,8.94,0,0,0,1.19-3.2A21.6,21.6,0,0,0,47,21.73l0-.65A14.37,14.37,0,0,0,46.68,18.29Z" transform="translate(0 -0.43)"/><path class="cls-1" d="M55,20.07a9.91,9.91,0,0,1,3.55-4.28,10.1,10.1,0,0,1,5.83-1.62,11.75,11.75,0,0,1,1.59.14L66.72,9.2l-2.43-.67,0.3-1.29,6.73-.65L72.19,7,69,28.43q0,0.31,0,.42,0,0.78.58,0.78a1.35,1.35,0,0,0,.57-0.15A6,6,0,0,0,71,28.94l0.44,1.11a10.32,10.32,0,0,1-.9.94,5.63,5.63,0,0,1-1.39.87,4.75,4.75,0,0,1-2.06.43,2.73,2.73,0,0,1-2-.65,3,3,0,0,1-.74-2,6.9,6.9,0,0,1-2.1,1.84,6,6,0,0,1-3.08.76,4.67,4.67,0,0,1-4.06-1.79,7.78,7.78,0,0,1-1.3-4.68A14.14,14.14,0,0,1,55,20.07Zm10.62-3.48A4.91,4.91,0,0,0,64,16.35a3.44,3.44,0,0,0-2.86,1.4,8.66,8.66,0,0,0-1.54,3.52,20.74,20.74,0,0,0-.46,4.41,6,6,0,0,0,.59,2.92,1.82,1.82,0,0,0,1.65,1,2.39,2.39,0,0,0,1.38-.44,4.69,4.69,0,0,0,1.14-1.13Z" transform="translate(0 -0.43)"/><path class="cls-1" d="M86.58,15.26a3.62,3.62,0,0,1,1.26,2.87,5,5,0,0,1-1.51,3.71A9.27,9.27,0,0,1,82.6,24a14.37,14.37,0,0,1-4.4.71A6.71,6.71,0,0,0,79,28.32a2.42,2.42,0,0,0,2.15,1.19,4.76,4.76,0,0,0,2.71-.72A8.43,8.43,0,0,0,85.75,27l1,1.58a7.68,7.68,0,0,1-1.5,1.68,8.72,8.72,0,0,1-2.48,1.46,8.86,8.86,0,0,1-3.35.6,7,7,0,0,1-3.91-1,5.82,5.82,0,0,1-2.22-2.58,8.53,8.53,0,0,1-.69-3.45,12,12,0,0,1,1.33-5.7,10.1,10.1,0,0,1,3.65-4,9.55,9.55,0,0,1,5.13-1.44A5.76,5.76,0,0,1,86.58,15.26Zm-4.1,1.59a1,1,0,0,0-.92-0.51,2.61,2.61,0,0,0-2.41,2,14.47,14.47,0,0,0-1,4.54,4.65,4.65,0,0,0,2.1-.55,5.15,5.15,0,0,0,1.85-1.57,3.64,3.64,0,0,0,.7-2.36A3.26,3.26,0,0,0,82.48,16.86Z" transform="translate(0 -0.43)"/><path class="cls-1" d="M89.47,16.36L89.72,15l5.16-.81,0.83,0.53-0.22,4.1a7.69,7.69,0,0,1,1.09-2.31,5.85,5.85,0,0,1,1.77-1.68,4.25,4.25,0,0,1,2.25-.63,1.88,1.88,0,0,1,.64.1,2.35,2.35,0,0,1,.45.21L100.61,20a1.59,1.59,0,0,0-.62-0.36,3.13,3.13,0,0,0-1.14-.19,9.28,9.28,0,0,0-1.81.16,3,3,0,0,0-1.24.49L94.13,32.28h-5l2-15Z" transform="translate(0 -0.43)"/><path class="cls-1" d="M102.49,16.36L102.74,15l5.83-.81,0.81,0.37-0.25,3.27a8.66,8.66,0,0,1,2.56-2.67,5.86,5.86,0,0,1,3.28-1,4.06,4.06,0,0,1,3,1.11,5,5,0,0,1,1.1,3.59,49.66,49.66,0,0,1-.76,5.55l-0.17,1q-0.25,1.37-.37,2.2a10.34,10.34,0,0,0-.12,1.43,1,1,0,0,0,.16.69,0.59,0.59,0,0,0,.44.17,1.21,1.21,0,0,0,.55-0.15,6.76,6.76,0,0,0,.85-0.57l0.44,1.14a6.79,6.79,0,0,1-1.72,1.29,5.93,5.93,0,0,1-3,.66,3.31,3.31,0,0,1-2.52-.73,2.75,2.75,0,0,1-.64-1.88,8.54,8.54,0,0,1,.15-1.37q0.15-.86.46-2.51l0.11-.6q0.33-1.8.51-3.15a18.29,18.29,0,0,0,.19-2.5,6.14,6.14,0,0,0-.12-1.4,1.25,1.25,0,0,0-.39-0.71,1.14,1.14,0,0,0-.72-0.21,2.91,2.91,0,0,0-2,1.11,10,10,0,0,0-1.81,2.7l-1.54,11.23h-5l2-15Z" transform="translate(0 -0.43)"/><path class="cls-1" d="M136.4,30.16L139,10.44l-3.72.41-2.57,6.84H129.8l1.54-9.11h21.34l-1.32,9.11h-2.82l-0.28-6.84-3.74-.41-2.63,19.72,4.42,0.47-0.16,1.65H132.31l0.2-1.65Z" transform="translate(0 -0.43)"/><path class="cls-1" d="M152.66,16.07l0.25-1.39,6.23-.81L160,14.24l-2,14.21q0,0.28,0,.39a1,1,0,0,0,.15.59,0.5,0.5,0,0,0,.43.2,1.3,1.3,0,0,0,.58-0.16,6.31,6.31,0,0,0,.86-0.56l0.44,1.14a7.33,7.33,0,0,1-1.74,1.5,5.15,5.15,0,0,1-2.87.74,4.11,4.11,0,0,1-2.31-.55,1.69,1.69,0,0,1-.82-1.46,2.5,2.5,0,0,1,0-.31Q153,27.73,154,20.71l0.48-3.65Zm2.73-8.76a2.74,2.74,0,0,1,1.07-1.11,3.21,3.21,0,0,1,1.64-.41,2.72,2.72,0,0,1,1.39.35,2.5,2.5,0,0,1,.93.91,2.31,2.31,0,0,1,.33,1.18,3.34,3.34,0,0,1-.8,2.31,3.06,3.06,0,0,1-2.41.9,2.28,2.28,0,0,1-1.25-.37,2.83,2.83,0,0,1-.93-1A2.39,2.39,0,0,1,155,8.88,3.34,3.34,0,0,1,155.39,7.3Z" transform="translate(0 -0.43)"/><path class="cls-1" d="M173.73,19.9a7.57,7.57,0,0,0-.14-1.7,1.2,1.2,0,0,0-.44-0.76,1.61,1.61,0,0,0-.86-0.19,2.17,2.17,0,0,0-1.2.47A6.77,6.77,0,0,0,169.76,19a9.51,9.51,0,0,0-1.14,1.74L167,32.28h-5l2.06-15-1.68-.93L162.64,15l5.8-.81,0.83,0.37L169,17.84a9,9,0,0,1,2.48-2.66,5.42,5.42,0,0,1,3.15-1,4.46,4.46,0,0,1,2.92.9A4.22,4.22,0,0,1,178.89,18a7.68,7.68,0,0,1,2.61-2.85,6.56,6.56,0,0,1,3.57-1,4.06,4.06,0,0,1,3,1.11,5,5,0,0,1,1.1,3.59,49.66,49.66,0,0,1-.76,5.55l-0.17,1q-0.25,1.37-.37,2.2a10.5,10.5,0,0,0-.12,1.43,1,1,0,0,0,.16.69,0.58,0.58,0,0,0,.44.17,1.22,1.22,0,0,0,.55-0.15,6.81,6.81,0,0,0,.85-0.57l0.44,1.14a6.79,6.79,0,0,1-1.72,1.29,5.93,5.93,0,0,1-3,.66,3.31,3.31,0,0,1-2.52-.73,2.75,2.75,0,0,1-.64-1.88,8.59,8.59,0,0,1,.15-1.37q0.15-.86.46-2.51l0.11-.6q0.33-1.8.51-3.15a18.29,18.29,0,0,0,.19-2.5,6.14,6.14,0,0,0-.12-1.4,1.25,1.25,0,0,0-.39-0.71,1.14,1.14,0,0,0-.72-0.21,3,3,0,0,0-1.93.9,7.67,7.67,0,0,0-1.76,2.33q-0.09,2-.37,3.94l-0.92,7.87h-5.22l0.89-6.9A46.84,46.84,0,0,0,173.73,19.9Z" transform="translate(0 -0.43)"/><path class="cls-1" d="M205.27,15.26a3.62,3.62,0,0,1,1.26,2.87A5,5,0,0,1,205,21.84,9.26,9.26,0,0,1,201.29,24a14.37,14.37,0,0,1-4.4.71,6.71,6.71,0,0,0,.76,3.58,2.42,2.42,0,0,0,2.15,1.19,4.76,4.76,0,0,0,2.71-.72A8.43,8.43,0,0,0,204.44,27l1,1.58a7.68,7.68,0,0,1-1.5,1.68,8.72,8.72,0,0,1-2.48,1.46,8.86,8.86,0,0,1-3.35.6,7,7,0,0,1-3.91-1A5.82,5.82,0,0,1,192,28.72a8.53,8.53,0,0,1-.69-3.45,12.05,12.05,0,0,1,1.33-5.7,10.1,10.1,0,0,1,3.65-4,9.55,9.55,0,0,1,5.13-1.44A5.76,5.76,0,0,1,205.27,15.26Zm-4.1,1.59a1,1,0,0,0-.92-0.51,2.61,2.61,0,0,0-2.41,2,14.47,14.47,0,0,0-1,4.54A4.65,4.65,0,0,0,199,22.3a5.15,5.15,0,0,0,1.85-1.57,3.64,3.64,0,0,0,.7-2.36A3.26,3.26,0,0,0,201.17,16.86Z" transform="translate(0 -0.43)"/><path class="cls-1" d="M209.23,29.34a5.21,5.21,0,0,0,2.35.56,3.06,3.06,0,0,0,1.71-.49,1.64,1.64,0,0,0,.75-1.47,2.32,2.32,0,0,0-.69-1.6,13.37,13.37,0,0,0-2.18-1.77A8,8,0,0,1,209,22.46a5.27,5.27,0,0,1-.83-3.05,4.39,4.39,0,0,1,.9-2.72,5.85,5.85,0,0,1,2.56-1.86,10.26,10.26,0,0,1,3.84-.67,15.62,15.62,0,0,1,2.39.19,7.41,7.41,0,0,1,1.66.39l-0.67,3.31a5.63,5.63,0,0,0-1.29-1.13,3.38,3.38,0,0,0-1.88-.52,3.23,3.23,0,0,0-1.78.46,1.49,1.49,0,0,0-.72,1.33,2.18,2.18,0,0,0,.3,1.11,4.13,4.13,0,0,0,.87,1q0.58,0.5,1.64,1.27a13.62,13.62,0,0,1,1.7,1.41,5.14,5.14,0,0,1,1.05,1.55,5.2,5.2,0,0,1,.4,2.12,4.8,4.8,0,0,1-1,3.1,6.12,6.12,0,0,1-2.72,1.9,10.67,10.67,0,0,1-3.72.63,13.07,13.07,0,0,1-2-.16,12.83,12.83,0,0,1-1.87-.42,3.79,3.79,0,0,1-1.11-.49l0.75-3.07A7.72,7.72,0,0,0,209.23,29.34Z" transform="translate(0 -0.43)"/><path class="cls-1" d="M186.83,9.43l1-7.57L186.19,2,185.4,4.34h-0.92L185,1.19h7.49L192,4.34h-0.88l0-2.33-1.64-.14-1,7.58,1.58,0.16-0.05.58H185.3l0.06-.59Z" transform="translate(0 -0.43)"/><path class="cls-1" d="M197,6.28a7.09,7.09,0,0,0,.08-1A1.81,1.81,0,0,0,197,4.7a0.45,0.45,0,0,0-.19-0.26,0.6,0.6,0,0,0-.3-0.07,1.4,1.4,0,0,0-.87.42,4.16,4.16,0,0,0-.85,1l-0.55,4.34h-1.61l1.09-8.76L193,1.17l0.1-.49,2-.25,0.31,0.16-0.53,4.18A3.78,3.78,0,0,1,196,3.71a2.3,2.3,0,0,1,1.28-.4,1.4,1.4,0,0,1,1.08.42,2,2,0,0,1,.38,1.37,14.41,14.41,0,0,1-.3,2.1l-0.05.32q-0.1.6-.15,0.91a4.42,4.42,0,0,0-.05.58,0.61,0.61,0,0,0,0,.29,0.15,0.15,0,0,0,.14.09,0.51,0.51,0,0,0,.22-0.06,2.44,2.44,0,0,0,.35-0.23l0.18,0.37a1.57,1.57,0,0,1-.3.28,2.34,2.34,0,0,1-.57.3,2.08,2.08,0,0,1-.76.13A1.09,1.09,0,0,1,196.7,10a0.85,0.85,0,0,1-.22-0.63,4.06,4.06,0,0,1,.06-0.61q0.06-.36.17-0.94l0.05-.3Q196.89,6.85,197,6.28Z" transform="translate(0 -0.43)"/><path class="cls-1" d="M204.52,3.5a1.33,1.33,0,0,1,.61.52,1.47,1.47,0,0,1,.19.76,1.83,1.83,0,0,1-.63,1.41,4,4,0,0,1-1.51.86,5.37,5.37,0,0,1-1.64.28,3.15,3.15,0,0,0,.1,1A1.46,1.46,0,0,0,202,9a1,1,0,0,0,.68.25,2.55,2.55,0,0,0,1.87-.91l0.33,0.55a2.91,2.91,0,0,1-.56.59,3.32,3.32,0,0,1-.9.51,3.12,3.12,0,0,1-1.16.21,2.52,2.52,0,0,1-1.4-.36,2.19,2.19,0,0,1-.82-1,3.09,3.09,0,0,1-.26-1.28,4.77,4.77,0,0,1,.48-2.14,4,4,0,0,1,1.33-1.56,3.23,3.23,0,0,1,1.87-.58A2.43,2.43,0,0,1,204.52,3.5Zm-1,.79a0.52,0.52,0,0,0-.44-0.21,1,1,0,0,0-.82.41,2.87,2.87,0,0,0-.52,1,5.75,5.75,0,0,0-.23,1.16,2.45,2.45,0,0,0,.95-0.22,2.42,2.42,0,0,0,.87-0.61,1.31,1.31,0,0,0,.35-0.9A1,1,0,0,0,203.56,4.29Z" transform="translate(0 -0.43)"/><polygon class="cls-2" points="218.35 38.73 0 38.73 1.65 32.13 220 32.13 218.35 38.73"/></svg>