<svg id="Layer_1" data-name="Layer 1" xmlns="http://www.w3.org/2000/svg" viewBox="0 0 67.24 51.88"><defs><style>.cls-1{fill:#be6895;}</style></defs><title>Untitled-1</title><path class="cls-1" d="M30.52,0.56V3.47Q14.33,9.19,14.33,22.72A10.59,10.59,0,0,0,15.24,27q0.91,2.08,2.16,2.08a7.2,7.2,0,0,0,1.08-.17,13.77,13.77,0,0,1,1.83-.17,8.84,8.84,0,0,1,7,3.45,12.28,12.28,0,0,1,2.91,8.18,11.45,11.45,0,0,1-3.53,8.67,12.63,12.63,0,0,1-9.09,3.36q-7,0-11.87-6.27A23.85,23.85,0,0,1,.8,31q0-11,9.13-20.3T30.52,0.56ZM68,0.56V3.47Q51.85,9.11,51.85,22.72a10.92,10.92,0,0,0,.88,4.36q0.88,2,2.21,2a5.86,5.86,0,0,0,1-.17,14.19,14.19,0,0,1,1.92-.17,8.79,8.79,0,0,1,6.93,3.49A12.28,12.28,0,0,1,67.7,40.4a11.51,11.51,0,0,1-3.49,8.67,12.49,12.49,0,0,1-9,3.36q-7.06,0-12-6.27A23.85,23.85,0,0,1,38.32,31q0-11,9.1-20.3T68,0.56Z" transform="translate(-0.8 -0.56)"/></svg>