<?xml version="1.0" encoding="utf-8"?>
<!-- Generator: Adobe Illustrator 21.1.0, SVG Export Plug-In . SVG Version: 6.00 Build 0)  -->
<svg version="1.1" id="Layer_1" xmlns="http://www.w3.org/2000/svg" xmlns:xlink="http://www.w3.org/1999/xlink" x="0px" y="0px"
	 viewBox="0 0 67.2 51.9" style="enable-background:new 0 0 67.2 51.9;" xml:space="preserve">
<style type="text/css">
	.st0{fill:#67C1E9;}
</style>
<title>quote-purple</title>
<path class="st0" d="M0,51.9V49c10.8-3.8,16.2-10.2,16.2-19.3c0-1.5-0.3-3-0.9-4.4c-0.6-1.3-1.3-2-2.2-2c-0.3,0-0.7,0.1-1,0.2
	c-0.6,0.1-1.3,0.2-1.9,0.2c-2.7,0-5.3-1.3-6.9-3.5c-1.9-2.3-3-5.2-2.9-8.2C0.2,8.8,1.5,5.6,3.8,3.4c2.4-2.3,5.7-3.5,9-3.4
	c4.7,0,8.7,2.1,12,6.3c3.3,4.3,5,9.7,4.9,15.2c0,7.3-3,14.1-9.1,20.3S7.7,51.3,0,51.9z M37.5,51.9V49c10.8-3.8,16.2-10.2,16.2-19.3
	c0-1.5-0.3-3-0.9-4.3c-0.6-1.4-1.3-2.1-2.2-2.1c-0.4,0-0.7,0.1-1.1,0.2c-0.6,0.1-1.2,0.2-1.8,0.2c-2.7,0-5.3-1.3-7-3.4
	c-1.9-2.3-3-5.2-2.9-8.2c-0.1-3.3,1.2-6.4,3.5-8.7C43.8,1,47.1-0.2,50.5,0c4.7,0,8.6,2.1,11.9,6.3c3.3,4.3,5,9.7,4.9,15.1
	c0,7.3-3,14.1-9.1,20.3S45.2,51.3,37.5,51.9z"/>
</svg>
