<svg id="Layer_1" data-name="Layer 1" xmlns="http://www.w3.org/2000/svg" viewBox="0 0 67.24 51.88"><defs><style>.cls-1{fill:#00a9e1;}</style></defs><title>quote-purple</title><path class="cls-1" d="M0,51.89V49q16.19-5.64,16.19-19.26a10.9,10.9,0,0,0-.88-4.36q-0.87-2-2.21-2a5.94,5.94,0,0,0-1,.17,14,14,0,0,1-1.92.17,8.78,8.78,0,0,1-6.93-3.49A12.28,12.28,0,0,1,.33,12,11.52,11.52,0,0,1,3.82,3.37a12.49,12.49,0,0,1,9-3.36q7.05,0,12,6.27a23.86,23.86,0,0,1,4.9,15.15q0,11-9.11,20.29T0,51.89Zm37.52,0V49q16.19-5.73,16.19-19.26a10.61,10.61,0,0,0-.91-4.32q-0.91-2.07-2.16-2.08a7.32,7.32,0,0,0-1.08.17,13.63,13.63,0,0,1-1.83.17,8.83,8.83,0,0,1-7-3.44A12.27,12.27,0,0,1,37.85,12a11.44,11.44,0,0,1,3.53-8.67A12.63,12.63,0,0,1,50.47,0q7,0,11.87,6.27a23.86,23.86,0,0,1,4.9,15.15q0,11-9.13,20.29T37.52,51.89Z" transform="translate(0 -0.01)"/></svg>