<?xml version="1.0" encoding="utf-8"?>
<!-- Generator: Adobe Illustrator 19.2.1, SVG Export Plug-In . SVG Version: 6.00 Build 0)  -->
<svg version="1.1" id="Layer_1" xmlns="http://www.w3.org/2000/svg" xmlns:xlink="http://www.w3.org/1999/xlink" x="0px" y="0px"
	 viewBox="0 0 27 27" style="enable-background:new 0 0 27 27;" xml:space="preserve">
<style type="text/css">
	.st0{fill:#C5C5C5;}
	.st1{fill:none;}
</style>
<path class="st0" d="M0,24.6l2.3,2.3l7.7-7.7V18l0.4-0.4c1.7,1.5,4,2.4,6.5,2.4c5.5,0,10-4.5,10-10s-4.6-9.9-10.1-9.9s-10,4.5-10,10
	c0,2.5,0.9,4.7,2.4,6.5L8.8,17H7.6L0,24.6z M9.9,10c0-3.8,3.2-6.9,7-6.9s6.9,3.2,6.9,7S20.7,17,16.9,17C13,17,9.9,13.8,9.9,10z"/>
<path class="st1" d="M1.5,1.5h24v24h-24V1.5z"/>
</svg>
